<?xml version="1.0" encoding="utf-8"?>
<!-- Generator: Adobe Illustrator 16.0.0, SVG Export Plug-In . SVG Version: 6.00 Build 0)  -->
<!DOCTYPE svg PUBLIC "-//W3C//DTD SVG 1.1//EN" "http://www.w3.org/Graphics/SVG/1.1/DTD/svg11.dtd">
<svg version="1.1" id="Layer_1" xmlns="http://www.w3.org/2000/svg" xmlns:xlink="http://www.w3.org/1999/xlink" x="0px" y="0px"
	 width="512px" height="512px" viewBox="0 0 512 512" enable-background="new 0 0 512 512" xml:space="preserve">
<path fill="#4F4F4F" d="M443.697,378.24L299.103,89.028c-8.157-16.329-24.836-26.644-43.104-26.644
	c-18.268,0-34.946,10.315-43.104,26.644L68.3,378.24c-7.472,14.941-6.676,32.693,2.109,46.912
	C79.193,439.347,94.702,448,111.404,448H400.58c16.715,0,32.223-8.653,40.996-22.848
	C450.361,410.934,451.156,393.182,443.697,378.24z M280.074,387.747c0,6.665-5.385,12.051-12.05,12.051h-24.101
	c-6.664,0-12.051-5.386-12.051-12.051v-24.101c0-6.664,5.387-12.051,12.051-12.051h24.101c6.665,0,12.05,5.387,12.05,12.051V387.747
	z M280.074,291.344c0,6.664-5.385,12.05-12.05,12.05h-24.101c-6.664,0-12.051-5.386-12.051-12.05V170.838
	c0-6.652,5.387-12.05,12.051-12.05h24.101c6.665,0,12.05,5.398,12.05,12.05V291.344z"/>
</svg>
