<?xml version="1.0" encoding="utf-8"?>
<!-- Generator: Adobe Illustrator 16.0.0, SVG Export Plug-In . SVG Version: 6.00 Build 0)  -->
<!DOCTYPE svg PUBLIC "-//W3C//DTD SVG 1.1//EN" "http://www.w3.org/Graphics/SVG/1.1/DTD/svg11.dtd">
<svg version="1.1" id="Layer_1" xmlns="http://www.w3.org/2000/svg" xmlns:xlink="http://www.w3.org/1999/xlink" x="0px" y="0px"
	 width="512px" height="512px" viewBox="0 0 512 512" enable-background="new 0 0 512 512" xml:space="preserve">
<path fill="#4F4F4F" d="M380.978,64.5H272.906c-19.813,0-47.486,11.462-61.496,25.472L44.007,257.375
	c-14.01,14.011-14.01,36.937,0,50.945L173.18,437.492c14.01,14.01,36.936,14.01,50.945,0l167.403-167.403
	c14.01-14.01,25.472-41.683,25.472-61.495v-108.07C417,80.71,400.789,64.5,380.978,64.5z M333.109,184.344
	c-19.856,0-35.953-16.097-35.953-35.953s16.097-35.953,35.953-35.953s35.953,16.097,35.953,35.953S352.966,184.344,333.109,184.344z
	"/>
</svg>
